<?xml version="1.0" encoding="UTF-8" standalone="no"?><!-- Generator: Gravit.io --><svg xmlns="http://www.w3.org/2000/svg" xmlns:xlink="http://www.w3.org/1999/xlink" style="isolation:isolate" viewBox="0 0 1717 1717" width="1717pt" height="1717pt"><defs><clipPath id="_clipPath_2ASDS8k0TSrY3ZXj0IECZ2yaS2e6YNyR"><rect width="1717" height="1717"/></clipPath></defs><g clip-path="url(#_clipPath_2ASDS8k0TSrY3ZXj0IECZ2yaS2e6YNyR)"><rect width="1717" height="1717" style="fill:rgb(235,235,235)"/><g><path d=" M 358.5 858.5 C 358.5 579.951 582.542 353.805 858.5 353.805 C 1134.458 353.805 1358.5 579.951 1358.5 858.5 C 1358.5 1137.049 1134.458 1363.195 858.5 1363.195 C 582.542 1363.195 358.5 1137.049 358.5 858.5 Z  M 368.5 858.5 C 368.5 588.062 588.062 368.5 858.5 368.5 C 1128.938 368.5 1348.5 588.062 1348.5 858.5 C 1348.5 1128.938 1128.938 1348.5 858.5 1348.5 C 588.062 1348.5 368.5 1128.938 368.5 858.5 Z " fill-rule="evenodd" fill="rgb(0,0,0)"/><g><path d=" M 925.271 698.249 L 713.861 698.249 C 624.17 698.249 551.353 770.055 551.353 858.5 L 551.353 858.5 C 551.353 946.945 624.17 1018.751 713.861 1018.751 L 925.271 1018.751 L 925.271 698.249 Z " fill-rule="evenodd" fill="rgb(0,0,0)"/><g><rect x="925.271" y="724.958" width="240.376" height="267.084" transform="matrix(1,0,0,1,0,0)" fill="rgb(0,0,0)"/><rect x="925.271" y="751.666" width="213.667" height="213.667" transform="matrix(1,0,0,1,0,0)" fill="rgb(235,235,235)"/><rect x="1081.07" y="778.375" width="35.611" height="53.417" transform="matrix(1,0,0,1,0,0)" fill="rgb(0,0,0)"/><rect x="1081.07" y="885.208" width="35.611" height="53.417" transform="matrix(1,0,0,1,0,0)" fill="rgb(0,0,0)"/></g></g></g></g></svg>